<svg width="14" height="13" viewBox="0 0 14 13" fill="none" xmlns="http://www.w3.org/2000/svg">
<path d="M10.1065 0.453705C9.00552 0.453705 7.94889 0.966205 7.25923 1.77608C6.56957 0.966205 5.51293 0.453705 4.41201 0.453705C2.46324 0.453705 0.93207 1.98488 0.93207 3.93364C0.93207 6.32531 3.0833 8.27407 6.34179 11.2352L7.25923 12.064L8.17667 11.2289C11.4352 8.27407 13.5864 6.32531 13.5864 3.93364C13.5864 1.98488 12.0552 0.453705 10.1065 0.453705ZM7.3225 10.2924L7.25923 10.3557L7.19596 10.2924C4.18423 7.56543 2.1975 5.76219 2.1975 3.93364C2.1975 2.66821 3.14658 1.71914 4.41201 1.71914C5.38639 1.71914 6.33546 2.34553 6.6708 3.21235H7.85398C8.18299 2.34553 9.13207 1.71914 10.1065 1.71914C11.3719 1.71914 12.321 2.66821 12.321 3.93364C12.321 5.76219 10.3342 7.56543 7.3225 10.2924Z" fill="#1D2734"/>
</svg>
