<svg width="18" height="18" viewBox="0 0 18 18" fill="none" xmlns="http://www.w3.org/2000/svg">
<path d="M17.3332 8.16699H13.8582L16.5582 5.46699L15.3832 4.28366L11.4998 8.16699H9.83317V6.50033L13.7165 2.61699L12.5332 1.44199L9.83317 4.14199V0.666992H8.1665V4.14199L5.4665 1.44199L4.28317 2.61699L8.1665 6.50033V8.16699H6.49984L2.6165 4.28366L1.4415 5.46699L4.1415 8.16699H0.666504V9.83366H4.1415L1.4415 12.5337L2.6165 13.717L6.49984 9.83366H8.1665V11.5003L4.28317 15.3837L5.4665 16.5587L8.1665 13.8587V17.3337H9.83317V13.8587L12.5332 16.5587L13.7165 15.3837L9.83317 11.5003V9.83366H11.4998L15.3832 13.717L16.5582 12.5337L13.8582 9.83366H17.3332V8.16699Z" fill="#323232"/>
</svg>
