<svg width="16" height="17" viewBox="0 0 16 17" fill="none" xmlns="http://www.w3.org/2000/svg">
<path d="M13.8333 6.50002H12.5333C12.825 6.00835 13 5.44168 13 4.83335C13 2.99168 11.5083 1.50002 9.66667 1.50002C9.38333 1.50002 9.11667 1.54168 8.85 1.60835C8.16667 1.04168 7.3 0.68335 6.33333 0.68335C4.75833 0.68335 3.40833 1.60835 2.775 2.94168C1.45833 3.38335 0.5 4.61668 0.5 6.08335C0.5 7.63335 1.56667 8.92502 3 9.30002V16.5H12.1667V14.8334H13.8333C14.75 14.8334 15.5 14.0834 15.5 13.1667V8.16668C15.5 7.25002 14.75 6.50002 13.8333 6.50002ZM3.83333 7.75002C2.91667 7.75002 2.16667 7.00002 2.16667 6.08335C2.16667 5.37502 2.625 4.75002 3.30833 4.51668L3.975 4.29168L4.275 3.65835C4.66667 2.85002 5.45 2.35002 6.33333 2.35002C6.99167 2.35002 7.49167 2.64168 7.78333 2.89168L8.43333 3.43335C8.43333 3.43335 8.96667 3.16668 9.65833 3.16668C10.575 3.16668 11.325 3.91668 11.325 4.83335H8.825C6.05833 4.83335 5.625 7.75002 3.83333 7.75002ZM13.8333 13.1667H12.1667V8.16668H13.8333V13.1667Z" fill="#323232"/>
</svg>
