<svg width="18" height="14" viewBox="0 0 18 14" fill="none" xmlns="http://www.w3.org/2000/svg">
<path d="M17 12.1667L9.83331 6.79172V6.03338C11.2083 5.62505 12.1666 4.22505 11.8583 2.65838C11.6416 1.56672 10.775 0.658384 9.68331 0.408383C7.78331 -0.0249498 6.08331 1.41672 6.08331 3.25005H7.74997C7.74997 2.55838 8.30831 2.00005 8.99997 2.00005C9.69164 2.00005 10.25 2.55838 10.25 3.25005C10.25 3.95005 9.67497 4.51672 8.97497 4.50005C8.52497 4.49172 8.16664 4.87505 8.16664 5.32505V6.79172L0.999972 12.1667C0.358305 12.6501 0.699972 13.6667 1.49997 13.6667H8.99997H16.5C17.3 13.6667 17.6416 12.6501 17 12.1667ZM3.99997 12.0001L8.99997 8.25005L14 12.0001H3.99997Z" fill="#323232"/>
</svg>
