<svg width="12" height="19" viewBox="0 0 12 19" fill="none" xmlns="http://www.w3.org/2000/svg">
<path d="M6.25 3.58333C7.16667 3.58333 7.91667 2.83333 7.91667 1.91667C7.91667 1 7.16667 0.25 6.25 0.25C5.33333 0.25 4.58333 1 4.58333 1.91667C4.58333 2.83333 5.33333 3.58333 6.25 3.58333ZM11.6667 9.41667V18.1667H10.8333V9.41667C10.8333 9.18333 10.65 9 10.4167 9C10.1833 9 10 9.18333 10 9.41667V10.25H9.16667V9.675C7.95 9.35833 6.91667 8.6 6.24167 7.575C5.98333 8.3 5.83333 9.05833 5.83333 9.83333C5.83333 10.025 5.85 10.2167 5.85833 10.4083L7.5 12.75V18.1667H5.83333V14L4.35 11.8833L4.16667 14.8333L1.66667 18.1667L0.333333 17.1667L2.5 14.275V9.83333C2.5 8.875 2.65 7.925 2.91667 7.00833L1.66667 7.71667V10.6667H0V6.75L4.5 4.19167V4.2C4.99167 3.94167 5.6 3.925 6.11667 4.225C6.41667 4.4 6.64167 4.65 6.78333 4.93333L7.44167 6.325C7.98333 7.41667 9.11667 8.16667 10.4167 8.16667C11.1083 8.16667 11.6667 8.725 11.6667 9.41667Z" fill="#323232"/>
</svg>
